<svg width="36" height="36" viewBox="0 0 36 36" fill="none" xmlns="http://www.w3.org/2000/svg">
<circle cx="18" cy="18" r="17.5" transform="matrix(-1 -8.74228e-08 -8.74228e-08 1 36 0)" stroke="#C25A87"/>
<g clip-path="url(#clip0_183_2247)">
<path d="M23.9 17.6C23.9 17.5 23.8 17.4 23.7 17.3L18.7 12.3C18.3 11.9 17.7 11.9 17.3 12.3C16.9 12.7 16.9 13.3 17.3 13.7L20.6 17L13 17C12.4 17 12 17.5 12 18C12 18.5 12.4 19 13 19L20.6 19L17.3 22.3C16.9 22.7 16.9 23.3 17.3 23.7C17.7 24.1 18.3 24.1 18.7 23.7L23.7 18.7C23.8 18.6 23.9 18.5 23.9 18.4C24 18.1 24 17.9 23.9 17.6Z" fill="#C25A87"/>
</g>
<defs>
<clipPath id="clip0_183_2247">
<rect width="12" height="12" fill="white" transform="translate(12 12)"/>
</clipPath>
</defs>
</svg>
