<svg width="36" height="36" viewBox="0 0 36 36" fill="none" xmlns="http://www.w3.org/2000/svg">
<circle cx="18" cy="18" r="17.5" transform="matrix(-1 0 0 1 36.001 0)" stroke="white"/>
<g clip-path="url(#clip0_182_1420)">
<path d="M23.901 17.6C23.901 17.5 23.801 17.4 23.701 17.3L18.701 12.3C18.301 11.9 17.701 11.9 17.301 12.3C16.901 12.7 16.901 13.3 17.301 13.7L20.601 17H13.001C12.401 17 12.001 17.5 12.001 18C12.001 18.5 12.401 19 13.001 19H20.601L17.301 22.3C16.901 22.7 16.901 23.3 17.301 23.7C17.701 24.1 18.301 24.1 18.701 23.7L23.701 18.7C23.801 18.6 23.901 18.5 23.901 18.4C24.001 18.1 24.001 17.9 23.901 17.6Z" fill="white"/>
</g>
<defs>
<clipPath id="clip0_182_1420">
<rect width="12" height="12" fill="white" transform="translate(12.001 12)"/>
</clipPath>
</defs>
</svg>
