<svg width="36" height="36" viewBox="0 0 36 36" fill="none" xmlns="http://www.w3.org/2000/svg">
<g opacity="0.3">
<circle cx="18.001" cy="18" r="17.5" stroke="white"/>
<g clip-path="url(#clip0_182_1414)">
<path d="M12.101 17.6C12.101 17.5 12.201 17.4 12.301 17.3L17.301 12.3C17.701 11.9 18.301 11.9 18.701 12.3C19.101 12.7 19.101 13.3 18.701 13.7L15.401 17H23.001C23.601 17 24.001 17.5 24.001 18C24.001 18.5 23.601 19 23.001 19H15.401L18.701 22.3C19.101 22.7 19.101 23.3 18.701 23.7C18.301 24.1 17.701 24.1 17.301 23.7L12.301 18.7C12.201 18.6 12.101 18.5 12.101 18.4C12.001 18.1 12.001 17.9 12.101 17.6Z" fill="white"/>
</g>
</g>
<defs>
<clipPath id="clip0_182_1414">
<rect width="12" height="12" fill="white" transform="matrix(-1 0 0 1 24.001 12)"/>
</clipPath>
</defs>
</svg>
