<svg width="24" height="24" viewBox="0 0 24 24" fill="none" xmlns="http://www.w3.org/2000/svg">
<path fill-rule="evenodd" clip-rule="evenodd" d="M8.8892 13.0119L12.0022 15.2049L15.003 13.0719L21.7295 19.9093C21.5524 19.9683 21.3632 20 21.1663 20H2.8337C2.5917 20 2.3607 19.9513 2.1484 19.864L8.8892 13.0119ZM23 7.3928V18.1107C23 18.3907 22.9406 18.6559 22.835 18.895L16.2416 12.1925L23 7.3928ZM1 7.45287L7.6462 12.1358L1.1166 18.7749C1.03927 18.5625 0.999767 18.3375 1 18.1107V7.454V7.45287ZM21.1663 3C22.1783 3 23 3.84547 23 4.88927V5.5534L11.9978 13.3677L1 5.618V4.88927C1 3.8466 1.8206 3 2.8337 3H21.1663Z" fill="black"/>
</svg>
