<svg width="24" height="24" viewBox="0 0 24 24" fill="none" xmlns="http://www.w3.org/2000/svg">
<path d="M19.6538 7.16239C16.9613 2.99986 11.4639 1.76235 7.20066 4.34987C3.0496 6.93739 1.70331 12.5624 4.39589 16.725L4.62028 17.0625L3.72275 20.4375L7.08847 19.5375L7.42505 19.7625C8.88353 20.55 10.4542 21 12.0249 21C13.7077 21 15.3906 20.55 16.8491 19.65C21.0001 16.95 22.2342 11.4374 19.6538 7.16239ZM17.2978 15.825C16.8491 16.5 16.2881 16.95 15.5028 17.0625C15.054 17.0625 14.4931 17.2875 12.2493 16.3875C10.342 15.4875 8.77134 14.0249 7.64943 12.3374C6.97628 11.5499 6.63971 10.5374 6.52752 9.52491C6.52752 8.62491 6.86409 7.8374 7.42505 7.2749C7.64943 7.04989 7.87381 6.93739 8.09819 6.93739H8.65915C8.88353 6.93739 9.10791 6.93739 9.2201 7.3874C9.44448 7.9499 10.0054 9.29991 10.0054 9.41241C10.1176 9.52491 10.1176 9.74991 10.0054 9.86242C10.1176 10.0874 10.0054 10.3124 9.89325 10.4249C9.78105 10.5374 9.66886 10.7624 9.55667 10.8749C9.33229 10.9874 9.2201 11.2124 9.33229 11.4374C9.78105 12.1124 10.342 12.7874 10.903 13.3499C11.5761 13.9124 12.2493 14.3624 13.0346 14.7C13.259 14.8125 13.4834 14.8125 13.5955 14.5875C13.7077 14.3624 14.2687 13.7999 14.4931 13.5749C14.7175 13.3499 14.8296 13.3499 15.054 13.4624L16.8491 14.3624C17.0735 14.475 17.2978 14.5875 17.41 14.7C17.5222 15.0375 17.5222 15.4875 17.2978 15.825Z" fill="#1D1D1D"/>
</svg>
