<svg width="36" height="36" viewBox="0 0 36 36" fill="none" xmlns="http://www.w3.org/2000/svg">
<circle cx="18" cy="18" r="17.5" transform="matrix(1.19249e-08 -1 -1 -1.19249e-08 36 36)" fill="#C25A87" stroke="#C25A87"/>
<g clip-path="url(#clip0_604_263)">
<path d="M17.6 12.1C17.5 12.1 17.4 12.2 17.3 12.3L12.3 17.3C11.9 17.7 11.9 18.3 12.3 18.7C12.7 19.1 13.3 19.1 13.7 18.7L17 15.4L17 23C17 23.6 17.5 24 18 24C18.5 24 19 23.6 19 23L19 15.4L22.3 18.7C22.7 19.1 23.3 19.1 23.7 18.7C24.1 18.3 24.1 17.7 23.7 17.3L18.7 12.3C18.6 12.2 18.5 12.1 18.4 12.1C18.1 12 17.9 12 17.6 12.1Z" fill="white"/>
</g>
<defs>
<clipPath id="clip0_604_263">
<rect width="12" height="12" fill="white" transform="translate(12 24) rotate(-90)"/>
</clipPath>
</defs>
</svg>
