<svg width="36" height="36" viewBox="0 0 36 36" fill="none" xmlns="http://www.w3.org/2000/svg">
<circle cx="18" cy="18" r="17.5" transform="matrix(1.19249e-08 -1 -1 -1.19249e-08 36 36)" stroke="#C25A87"/>
<g clip-path="url(#clip0_604_292)">
<path d="M18.4 23.9C18.5 23.9 18.6 23.8 18.7 23.7L23.7 18.7C24.1 18.3 24.1 17.7 23.7 17.3C23.3 16.9 22.7 16.9 22.3 17.3L19 20.6L19 13C19 12.4 18.5 12 18 12C17.5 12 17 12.4 17 13L17 20.6L13.7 17.3C13.3 16.9 12.7 16.9 12.3 17.3C11.9 17.7 11.9 18.3 12.3 18.7L17.3 23.7C17.4 23.8 17.5 23.9 17.6 23.9C17.9 24 18.1 24 18.4 23.9Z" fill="#C25A87"/>
</g>
<defs>
<clipPath id="clip0_604_292">
<rect width="12" height="12" fill="white" transform="translate(24 12) rotate(90)"/>
</clipPath>
</defs>
</svg>
